# xmcd
#
# Track frame offsets: 
#        300
#        25210
#        49091
#        69054
#        87774
#        109765
#        134131
#        158497
#        177875
#        206041
#        230714
#        248377
#
# Disc length: 3559 seconds
#
# Revision: 0
# Processed by: cddbd v1.5.2PL0 Copyright (c) Steve Scherf et al.
# Submitted via: ExactAudioCopy v1.0b1
#
DISCID=990de30c
DTITLE=Blues Company - The Quiet Side Of...
DYEAR=2006
DGENRE=Blues Rock
TTITLE0=The World Is Mad
TTITLE1=Christmas Eve In Germany
TTITLE2=Members Only
TTITLE3=(They Called Him) Muddy Waters
TTITLE4=Chanel No. 5
TTITLE5=Crippled Mind
TTITLE6=Pension Blues
TTITLE7=Out Of My Mind
TTITLE8=Cold Rain
TTITLE9=Place To Rest
TTITLE10=Give Me Back My Life
TTITLE11=My Funny Valentine
EXTD=
EXTT0=
EXTT1=
EXTT2=
EXTT3=
EXTT4=
EXTT5=
EXTT6=
EXTT7=
EXTT8=
EXTT9=
EXTT10=
EXTT11=
PLAYORDER=
